<svg id="svg" version="1.1" xmlns="http://www.w3.org/2000/svg" xmlns:xlink="http://www.w3.org/1999/xlink" width="400" height="273.6176935229068" viewBox="0, 0, 400,273.6176935229068"><g id="svgg"><path id="path0" d="M1.143 0.634 C 0.815 0.982,0.548 1.591,0.548 1.986 C 0.548 2.382,0.424 2.782,0.274 2.875 C -0.085 3.096,-0.108 270.552,0.251 270.924 C 0.388 271.067,0.542 271.480,0.593 271.841 C 0.643 272.202,1.032 272.757,1.457 273.073 L 2.231 273.648 35.133 273.648 C 53.229 273.648,68.497 273.550,69.062 273.431 C 70.518 273.122,70.910 272.224,70.910 269.199 C 70.910 267.626,71.030 266.656,71.253 266.434 C 71.521 266.165,71.632 258.245,71.769 229.624 C 71.965 188.405,71.997 187.745,73.801 186.686 C 74.681 186.170,77.073 186.009,77.344 186.448 C 77.447 186.614,79.449 186.721,82.435 186.721 C 88.230 186.721,87.961 186.616,90.398 189.835 C 91.324 191.059,93.017 193.215,94.159 194.627 C 95.301 196.039,96.785 197.949,97.457 198.871 C 98.129 199.793,98.832 200.704,99.018 200.896 C 99.205 201.088,100.070 202.320,100.940 203.634 C 101.810 204.948,102.740 206.262,103.006 206.554 C 103.273 206.846,103.491 207.168,103.491 207.270 C 103.491 207.372,103.870 207.872,104.333 208.382 C 104.796 208.892,105.983 210.528,106.971 212.018 C 107.959 213.509,108.931 214.926,109.131 215.167 C 109.332 215.408,109.777 215.998,110.121 216.477 C 111.160 217.925,113.160 220.510,113.539 220.896 C 113.734 221.095,113.895 221.349,113.895 221.460 C 113.895 221.571,114.120 221.905,114.396 222.200 C 114.671 222.496,115.132 223.105,115.420 223.553 C 115.998 224.453,118.301 227.573,118.546 227.789 C 118.632 227.864,119.614 229.220,120.730 230.801 C 121.845 232.382,122.835 233.737,122.930 233.812 C 123.025 233.888,123.482 234.504,123.946 235.181 C 124.409 235.859,125.110 236.783,125.502 237.235 C 125.894 237.687,126.214 238.141,126.215 238.245 C 126.215 238.349,126.677 238.986,127.242 239.661 C 127.806 240.337,128.552 241.299,128.899 241.800 C 129.246 242.301,130.515 244.066,131.718 245.722 C 132.921 247.379,134.227 249.227,134.619 249.829 C 135.011 250.431,135.412 250.986,135.511 251.061 C 135.747 251.242,140.444 257.787,141.102 258.854 C 141.385 259.311,141.705 259.747,141.814 259.822 C 141.923 259.897,142.340 260.452,142.740 261.054 C 143.400 262.048,144.599 263.681,145.458 264.756 C 145.641 264.984,146.156 265.662,146.602 266.261 C 147.049 266.861,147.757 267.721,148.175 268.172 C 148.594 268.624,148.937 269.080,148.938 269.186 C 148.939 269.292,149.880 270.370,151.030 271.582 L 153.121 273.785 188.744 273.783 C 222.883 273.781,228.564 273.667,229.261 272.970 C 229.415 272.816,229.702 272.690,229.897 272.690 C 232.040 272.690,231.888 268.509,229.659 266.119 C 229.308 265.743,228.657 264.942,228.211 264.339 C 227.765 263.737,227.266 263.121,227.102 262.971 C 226.498 262.418,222.226 256.849,221.812 256.076 C 221.638 255.750,221.330 255.319,221.128 255.116 C 220.925 254.914,220.463 254.299,220.099 253.750 C 219.256 252.476,217.498 250.053,213.677 244.901 C 212.002 242.642,210.396 240.424,210.109 239.973 C 209.822 239.521,209.357 238.905,209.076 238.604 C 208.795 238.303,208.240 237.578,207.842 236.993 C 206.255 234.659,205.129 233.130,203.979 231.746 C 203.597 231.287,203.039 230.559,202.738 230.128 C 202.437 229.697,201.812 228.902,201.350 228.362 C 200.888 227.821,200.149 226.886,199.709 226.283 C 199.268 225.681,198.835 225.127,198.745 225.051 C 198.483 224.832,192.470 216.144,190.457 213.078 C 189.446 211.537,187.987 209.592,187.216 208.756 C 185.584 206.986,183.107 203.844,180.972 200.836 C 178.622 197.526,176.235 194.264,176.051 194.114 C 175.906 193.994,169.484 185.152,168.378 183.547 C 167.730 182.607,165.559 179.754,165.376 179.603 C 165.285 179.528,164.538 178.658,163.714 177.669 C 159.456 172.558,159.446 172.491,162.630 170.257 C 163.758 169.465,164.805 168.716,164.956 168.593 C 165.106 168.469,165.681 168.032,166.233 167.620 C 169.029 165.536,177.177 158.508,179.232 156.408 C 179.812 155.814,180.472 155.216,180.698 155.077 C 181.180 154.783,184.073 151.479,185.234 149.899 C 185.676 149.298,186.308 148.529,186.638 148.190 C 187.539 147.268,188.714 145.443,189.593 143.600 C 190.024 142.697,190.913 141.296,191.567 140.487 C 192.774 138.996,196.030 132.742,196.030 131.914 C 196.030 131.666,196.150 131.421,196.297 131.371 C 196.444 131.321,196.886 130.356,197.279 129.227 C 197.673 128.097,198.156 126.804,198.354 126.352 C 198.551 125.900,198.988 124.668,199.324 123.614 C 199.660 122.560,200.036 121.451,200.160 121.150 C 200.687 119.866,201.421 116.846,201.688 114.853 C 201.769 114.251,201.946 113.641,202.081 113.498 C 202.217 113.355,202.327 112.609,202.327 111.841 C 202.327 111.073,202.470 110.302,202.645 110.127 C 203.033 109.739,203.427 106.567,203.588 102.533 C 203.654 100.876,203.834 99.273,203.988 98.970 C 204.706 97.552,203.538 78.212,202.670 77.148 C 202.513 76.955,202.319 76.181,202.240 75.428 C 202.104 74.129,201.879 72.990,201.266 70.500 C 200.654 68.011,200.322 66.926,200.099 66.680 C 199.969 66.537,199.863 66.083,199.863 65.670 C 199.863 65.257,199.740 64.843,199.589 64.750 C 199.439 64.657,199.316 64.346,199.316 64.059 C 199.316 63.772,199.114 63.071,198.867 62.501 C 198.620 61.931,198.298 61.157,198.151 60.780 C 198.003 60.404,197.774 59.882,197.641 59.620 C 197.508 59.359,197.399 58.970,197.399 58.756 C 197.399 58.542,197.076 57.709,196.682 56.904 C 196.288 56.100,195.875 55.195,195.765 54.894 C 194.512 51.456,187.758 39.076,186.205 37.372 C 185.794 36.920,185.116 36.084,184.698 35.513 C 183.559 33.955,174.355 24.826,171.243 22.167 C 168.007 19.402,164.948 16.975,164.700 16.975 C 164.602 16.975,164.252 16.723,163.921 16.415 C 163.591 16.107,163.010 15.696,162.632 15.501 C 162.254 15.306,161.328 14.799,160.575 14.374 C 159.822 13.949,158.960 13.467,158.658 13.303 C 158.357 13.139,158.049 12.933,157.974 12.844 C 157.695 12.517,154.668 10.678,154.409 10.678 C 154.262 10.678,154.141 10.578,154.141 10.457 C 154.141 10.184,152.204 9.309,151.601 9.309 C 151.359 9.309,151.086 9.185,150.992 9.035 C 150.899 8.884,150.584 8.761,150.292 8.761 C 150.000 8.761,149.760 8.662,149.760 8.540 C 149.760 8.418,149.237 8.100,148.597 7.833 C 147.957 7.565,146.568 6.925,145.509 6.411 C 144.451 5.897,143.380 5.476,143.130 5.476 C 142.879 5.476,142.598 5.352,142.505 5.202 C 142.412 5.051,142.093 4.928,141.797 4.928 C 141.236 4.928,137.108 3.675,136.280 3.254 C 136.019 3.121,135.502 3.012,135.133 3.012 C 134.763 3.012,134.385 2.888,134.292 2.738 C 134.199 2.587,133.785 2.464,133.372 2.464 C 132.959 2.464,132.494 2.337,132.338 2.181 C 131.927 1.770,129.438 1.323,126.762 1.181 C 125.483 1.112,124.318 0.942,124.175 0.802 C 124.028 0.658,120.631 0.548,116.320 0.548 C 111.552 0.548,108.662 0.446,108.556 0.274 C 108.444 0.093,90.317 -0.000,55.062 -0.000 L 1.738 0.000 1.143 0.634 M99.521 66.256 C 99.622 66.420,101.468 66.530,104.137 66.530 C 107.056 66.530,108.689 66.635,108.890 66.837 C 109.059 67.005,109.977 67.245,110.930 67.370 C 115.367 67.949,116.619 68.432,118.539 70.302 C 119.299 71.041,120.504 71.943,121.218 72.305 C 124.712 74.078,130.048 82.435,130.048 86.134 C 130.048 86.477,130.171 86.834,130.322 86.927 C 130.472 87.020,130.595 87.803,130.595 88.668 C 130.595 89.532,130.725 90.369,130.883 90.527 C 131.236 90.880,131.055 98.711,130.633 101.300 C 130.064 104.792,129.985 105.133,129.744 105.133 C 129.610 105.133,129.500 105.309,129.500 105.524 C 129.500 106.415,127.731 109.373,124.045 114.648 C 122.849 116.358,116.111 120.732,114.664 120.737 C 114.409 120.738,114.125 120.862,114.031 121.013 C 113.938 121.164,113.093 121.287,112.154 121.287 C 111.214 121.287,110.327 121.404,110.184 121.548 C 109.639 122.093,81.293 122.399,75.291 121.925 L 72.416 121.697 72.174 120.055 C 71.869 117.992,71.887 78.012,72.195 72.279 C 72.512 66.388,72.414 66.530,76.140 66.530 C 77.812 66.530,79.165 66.411,79.261 66.256 C 79.369 66.082,83.046 65.982,89.391 65.982 C 95.736 65.982,99.413 66.082,99.521 66.256 " stroke="none" fill="#fc8c04" fill-rule="evenodd"></path><path id="path1" d="M145.380 0.274 C 145.380 0.424,145.199 0.548,144.979 0.548 C 144.520 0.548,144.011 1.369,144.011 2.110 C 144.011 3.396,146.683 5.361,150.445 6.843 C 150.746 6.961,152.163 7.519,153.593 8.081 C 156.611 9.268,157.528 9.686,158.658 10.396 C 159.110 10.679,159.631 10.920,159.817 10.931 C 160.002 10.942,160.828 11.383,161.652 11.910 C 162.476 12.437,163.215 12.868,163.294 12.868 C 163.374 12.868,164.113 13.299,164.937 13.826 C 165.761 14.353,166.516 14.784,166.615 14.784 C 166.715 14.784,167.589 15.339,168.558 16.016 C 169.527 16.694,170.428 17.248,170.558 17.248 C 170.689 17.248,170.837 17.342,170.888 17.457 C 170.938 17.572,171.615 18.119,172.393 18.672 C 174.417 20.112,174.840 20.468,176.839 22.408 C 177.823 23.363,179.433 24.665,180.416 25.302 C 182.471 26.633,185.212 29.355,186.512 31.356 C 187.819 33.369,188.758 34.582,191.424 37.702 C 192.737 39.239,193.986 40.779,194.199 41.124 C 194.412 41.470,195.294 42.856,196.161 44.205 C 197.774 46.719,200.958 52.787,200.958 53.348 C 200.958 53.521,201.081 53.662,201.232 53.662 C 201.383 53.662,201.506 53.848,201.506 54.076 C 201.506 54.304,201.615 54.705,201.748 54.966 C 201.881 55.228,202.140 55.811,202.324 56.263 C 202.682 57.143,203.167 58.306,203.636 59.411 C 204.345 61.084,205.663 64.964,206.147 66.804 C 206.325 67.481,206.586 68.414,206.726 68.876 C 206.867 69.339,206.982 69.936,206.982 70.204 C 206.982 70.472,207.157 71.079,207.371 71.553 C 207.585 72.028,207.836 72.909,207.929 73.511 C 208.518 77.327,208.662 78.393,208.853 80.356 C 208.971 81.561,209.214 82.815,209.393 83.144 C 209.858 83.996,209.858 102.969,209.393 103.433 C 209.214 103.613,208.970 104.777,208.851 106.021 C 208.657 108.054,208.526 109.082,207.917 113.347 C 207.820 114.025,207.626 114.722,207.486 114.896 C 207.345 115.070,207.119 115.809,206.983 116.539 C 206.847 117.268,206.612 118.357,206.460 118.960 C 206.309 119.562,206.108 120.424,206.015 120.876 C 205.922 121.328,205.741 121.944,205.615 122.245 C 205.060 123.561,203.970 126.977,203.970 127.397 C 203.970 127.650,203.871 127.858,203.750 127.858 C 203.629 127.858,203.305 128.504,203.030 129.295 C 201.825 132.754,197.798 140.261,195.535 143.266 C 194.829 144.204,194.049 145.279,193.803 145.655 C 193.556 146.031,192.726 147.016,191.959 147.844 C 191.191 148.672,189.483 150.747,188.163 152.455 C 186.019 155.229,183.862 157.599,182.015 159.210 C 180.632 160.415,176.666 163.640,175.633 164.397 C 175.031 164.839,174.353 165.402,174.127 165.649 C 173.901 165.895,173.347 166.329,172.895 166.613 C 165.377 171.344,165.451 172.525,173.990 183.940 C 176.099 186.758,179.276 191.032,181.052 193.437 C 182.828 195.842,184.458 198.024,184.674 198.285 C 184.891 198.547,185.373 199.225,185.747 199.791 C 186.121 200.358,187.325 202.001,188.422 203.442 C 189.520 204.884,190.664 206.410,190.965 206.832 C 191.266 207.255,191.944 208.114,192.471 208.741 C 192.998 209.367,193.737 210.336,194.114 210.893 C 194.490 211.450,194.890 211.907,195.003 211.908 C 195.116 211.909,195.209 212.047,195.209 212.214 C 195.209 212.382,195.527 212.905,195.915 213.378 C 196.922 214.603,200.071 218.941,200.402 219.559 C 200.555 219.846,200.846 220.246,201.049 220.448 C 201.251 220.651,201.714 221.266,202.077 221.815 C 203.130 223.406,205.301 226.367,207.262 228.884 C 208.259 230.164,209.680 232.074,210.420 233.128 C 211.159 234.182,211.982 235.283,212.247 235.575 C 212.513 235.867,212.731 236.187,212.731 236.286 C 212.731 236.385,212.984 236.758,213.293 237.114 C 213.602 237.471,214.742 238.985,215.825 240.479 C 217.816 243.222,225.385 253.429,225.805 253.936 C 225.930 254.086,227.134 255.688,228.481 257.495 C 229.828 259.302,231.178 261.112,231.481 261.518 C 231.785 261.924,232.456 262.848,232.973 263.572 C 233.490 264.295,233.984 264.949,234.070 265.024 C 234.156 265.099,234.589 265.654,235.032 266.256 C 235.475 266.858,235.920 267.413,236.022 267.488 C 236.124 267.563,236.439 268.001,236.721 268.460 C 237.004 268.919,238.024 270.309,238.988 271.550 L 240.741 273.805 282.520 273.711 C 315.928 273.636,324.518 273.546,325.394 273.260 C 325.996 273.064,327.043 272.849,327.721 272.782 C 328.398 272.716,329.199 272.552,329.500 272.419 C 329.802 272.285,330.479 272.117,331.006 272.045 C 332.358 271.860,334.602 271.333,335.250 271.048 C 335.551 270.916,336.229 270.743,336.756 270.665 C 339.578 270.245,342.322 269.573,342.916 269.155 C 343.066 269.049,344.268 268.605,345.585 268.168 C 346.903 267.732,347.981 267.277,347.981 267.158 C 347.981 267.038,348.147 266.940,348.349 266.940 C 348.552 266.940,349.137 266.740,349.650 266.495 C 350.162 266.250,351.136 265.788,351.814 265.468 C 352.491 265.149,353.087 264.795,353.137 264.682 C 353.187 264.569,353.440 264.476,353.698 264.476 C 353.957 264.476,354.285 264.363,354.428 264.224 C 354.572 264.086,355.385 263.614,356.236 263.175 C 358.030 262.250,364.540 258.159,367.170 256.304 C 373.226 252.032,378.160 247.513,382.010 242.710 C 382.130 242.560,382.870 241.486,383.654 240.324 C 387.935 233.977,389.287 231.889,390.000 230.527 C 390.434 229.699,390.993 228.652,391.243 228.200 C 391.493 227.748,392.041 226.578,392.462 225.599 C 393.367 223.493,394.488 220.999,394.829 220.332 C 394.962 220.071,395.072 219.616,395.072 219.322 C 395.072 219.027,395.180 218.720,395.313 218.638 C 395.601 218.459,396.441 215.975,396.441 215.300 C 396.441 214.800,396.789 213.612,397.475 211.773 C 397.700 211.170,398.114 210.063,398.394 209.313 C 398.675 208.562,398.905 207.570,398.905 207.109 C 398.905 206.647,399.015 206.153,399.150 206.010 C 399.802 205.319,400.000 200.437,400.000 185.085 C 400.000 169.846,399.873 166.758,399.185 165.229 C 399.050 164.928,398.876 164.251,398.800 163.723 C 398.464 161.399,397.597 158.218,397.189 157.810 C 397.079 157.699,396.988 157.267,396.988 156.849 C 396.988 156.432,396.865 156.014,396.715 155.921 C 396.564 155.828,396.441 155.511,396.441 155.216 C 396.441 154.680,396.375 154.508,395.529 152.818 C 395.278 152.317,395.072 151.730,395.072 151.514 C 395.072 151.298,394.958 150.908,394.818 150.647 C 394.678 150.385,393.636 148.261,392.501 145.927 C 389.723 140.212,389.177 139.288,384.668 132.681 C 383.531 131.015,380.130 126.962,378.014 124.751 C 377.291 123.995,376.614 123.226,376.509 123.042 C 376.275 122.632,370.118 117.111,368.789 116.119 C 368.261 115.725,367.769 115.340,367.693 115.262 C 367.229 114.781,362.217 111.157,362.017 111.157 C 361.883 111.157,361.535 110.938,361.243 110.671 C 360.951 110.404,360.133 109.822,359.425 109.378 C 357.303 108.046,357.281 107.839,358.899 104.357 C 359.670 102.698,360.301 101.146,360.301 100.910 C 360.301 100.673,360.422 100.479,360.570 100.479 C 360.717 100.479,360.919 100.140,361.018 99.726 C 361.117 99.312,361.282 98.850,361.385 98.700 C 361.487 98.549,361.729 97.871,361.923 97.194 C 362.116 96.516,362.424 95.654,362.609 95.277 C 362.793 94.901,363.097 94.038,363.284 93.361 C 363.471 92.683,363.739 91.750,363.879 91.288 C 364.019 90.825,364.134 90.177,364.134 89.847 C 364.134 89.517,364.252 89.033,364.397 88.771 C 365.440 86.883,365.846 82.391,365.848 72.690 C 365.850 63.218,365.606 60.446,364.425 56.551 C 364.285 56.091,364.050 55.222,363.902 54.620 C 363.382 52.511,362.941 51.055,362.616 50.376 C 362.435 50.000,362.134 49.199,361.947 48.597 C 361.760 47.995,361.005 46.227,360.270 44.670 C 359.534 43.112,358.932 41.792,358.932 41.736 C 358.932 40.123,350.258 28.280,345.796 23.801 C 341.540 19.528,333.759 13.142,332.810 13.142 C 332.727 13.142,332.010 12.738,331.217 12.244 C 330.423 11.750,329.405 11.165,328.953 10.944 C 328.501 10.723,328.070 10.470,327.995 10.383 C 327.751 10.100,326.005 9.309,325.625 9.309 C 325.423 9.309,325.257 9.185,325.257 9.035 C 325.257 8.884,325.010 8.761,324.709 8.761 C 324.408 8.761,324.162 8.662,324.162 8.540 C 324.162 8.346,323.628 8.084,321.287 7.125 C 320.986 7.002,320.062 6.598,319.233 6.228 C 318.405 5.857,317.235 5.395,316.632 5.199 C 315.282 4.761,313.777 4.166,313.145 3.820 C 312.884 3.676,312.429 3.559,312.135 3.559 C 311.841 3.559,311.532 3.450,311.449 3.316 C 311.366 3.182,310.836 2.993,310.269 2.897 C 309.703 2.801,308.809 2.649,308.282 2.561 C 307.755 2.472,307.163 2.270,306.967 2.112 C 306.509 1.744,304.523 1.352,302.259 1.184 C 301.280 1.111,300.362 0.938,300.219 0.799 C 300.076 0.661,299.067 0.548,297.976 0.548 C 296.886 0.548,295.918 0.424,295.825 0.274 C 295.590 -0.106,145.380 -0.106,145.380 0.274 M284.834 66.540 C 289.035 68.685,292.826 72.537,293.972 75.826 C 294.393 77.031,294.456 86.673,294.045 86.927 C 293.895 87.020,293.771 87.582,293.771 88.175 C 293.771 88.768,293.662 89.254,293.527 89.254 C 293.393 89.254,293.202 89.576,293.104 89.969 C 292.444 92.596,290.161 95.707,288.688 95.983 C 288.171 96.080,287.748 96.269,287.748 96.403 C 287.748 96.537,285.005 96.646,281.604 96.646 C 277.803 96.646,275.396 96.751,275.291 96.920 C 275.181 97.097,269.498 97.194,259.138 97.194 C 248.777 97.194,243.094 97.097,242.984 96.920 C 242.886 96.761,241.395 96.646,239.440 96.646 C 234.715 96.646,235.181 98.368,235.181 80.909 L 235.181 66.522 236.071 65.979 C 236.940 65.450,237.512 65.437,259.822 65.439 L 282.683 65.442 284.834 66.540 M291.444 158.215 C 304.350 158.442,311.766 158.864,313.347 159.461 C 315.272 160.187,318.538 162.058,320.001 163.271 C 322.029 164.953,323.301 166.281,323.773 167.208 C 324.062 167.776,324.368 168.303,324.452 168.378 C 324.537 168.453,324.894 169.254,325.245 170.157 C 325.597 171.061,326.038 172.170,326.226 172.621 C 327.529 175.759,328.061 178.883,328.064 183.436 C 328.067 187.155,327.701 189.800,326.909 191.786 C 324.610 197.551,320.349 201.981,313.868 205.347 C 312.377 206.121,311.040 206.867,310.897 207.005 C 310.742 207.154,295.708 207.252,273.799 207.247 C 233.758 207.237,236.395 207.341,235.561 205.733 C 235.096 204.837,234.985 161.413,235.447 161.127 C 235.593 161.037,235.794 160.352,235.893 159.605 L 236.073 158.248 243.225 158.244 C 247.426 158.241,250.546 158.129,250.787 157.971 C 251.224 157.686,266.579 157.778,291.444 158.215 " stroke="none" fill="#04a404" fill-rule="evenodd"></path></g></svg>